<?xml version="1.0" encoding="utf-8"?><svg fill="none" viewBox="0 0 1000 1000" xmlns="http://www.w3.org/2000/svg"><defs /><g id="phone Outlines"><g transform="translate(501.424,500)"><g transform="rotate(0)"><animateTransform repeatCount="indefinite" type="rotate" attributeName="transform" dur="0.4s" begin="1.3s" calcMode="spline" values="0; 5; 0; -5; 0; 5; 0" keyTimes="0; 0.167; 0.333; 0.5; 0.667; 0.833; 1" keySplines="0.86 0 0.14 1; 0.86 0 0.14 1; 0.86 0 0.14 1; 0.86 0 0.14 1; 0.86 0 0.14 1; 0.86 0 0.14 1" fill="freeze" /><g transform="scale(1,1)"><animateTransform repeatCount="indefinite" type="scale" attributeName="transform" dur="3s" begin="0s" calcMode="spline" values="1 1; 1.15 1.15; 1.15 1.15; 1 1" keyTimes="0; 0.333; 0.667; 1" keySplines="1 0 0 1; 1 0 0 1; 1 0 0 1" fill="freeze" /><g transform="translate(-169.75,-302.69)"><g opacity="0" id="r Outlines"><animate repeatCount="indefinite" attributeName="opacity" dur="3s" begin="0s" calcMode="spline" values="0; 1; 1; 0" keyTimes="0; 0.333; 0.667; 1" keySplines="0.83 0 0.17 1; 0.83 0 0.17 1; 0.83 0 0.17 1" fill="freeze" /><g transform="translate(38.604,301.632)"><animateTransform repeatCount="indefinite" type="translate" attributeName="transform" dur="3s" begin="0s" calcMode="spline" values="38.604 301.632; -61.396 301.632; -61.396 301.632; 33.604 301.632" keyTimes="0; 0.333; 0.667; 1" keySplines="0.83 0 0.17 1; 0 0 1 1; 0.83 0 0.17 1" fill="freeze" /><g transform="scale(0.12,0.12)"><animateTransform repeatCount="indefinite" type="scale" attributeName="transform" dur="3s" begin="0s" calcMode="spline" values="0.12 0.12; 1 1; 1 1; 0 0" keyTimes="0; 0.333; 0.667; 1" keySplines="0.83 0 0.17 1; 0.83 0 0.17 1; 0.83 0 0.17 1" fill="freeze" /><g transform="translate(-22.35,-67.752)"><g id="Group 1" transform="matrix(1,0,0,1,22.349,67.752)"><path fill="#ffb200" fill-opacity="1" d="M1.809,67.502C-4.36,67.502,-10.173,63.746,-12.497,57.637C-18.869,40.892,-22.1,23.019,-22.1,4.516C-22.1,-16.705,-17.665,-37.758,-9.274,-56.368C-5.801,-64.072,3.263,-67.502,10.966,-64.028C18.671,-60.555,22.099,-51.493,18.626,-43.789C12.004,-29.103,8.505,-12.4,8.505,4.516C8.505,19.285,11.063,33.497,16.108,46.753C19.114,54.652,15.146,63.492,7.247,66.497C5.456,67.179,3.617,67.502,1.809,67.502Z" /></g></g></g></g></g></g></g></g></g></g><g id="phone Outlines"><g transform="translate(501.424,500)"><g transform="rotate(0)"><animateTransform repeatCount="indefinite" type="rotate" attributeName="transform" dur="0.4s" begin="1.3s" calcMode="spline" values="0; 5; 0; -5; 0; 5; 0" keyTimes="0; 0.167; 0.333; 0.5; 0.667; 0.833; 1" keySplines="0.86 0 0.14 1; 0.86 0 0.14 1; 0.86 0 0.14 1; 0.86 0 0.14 1; 0.86 0 0.14 1; 0.86 0 0.14 1" fill="freeze" /><g transform="scale(1,1)"><animateTransform repeatCount="indefinite" type="scale" attributeName="transform" dur="3s" begin="0s" calcMode="spline" values="1 1; 1.15 1.15; 1.15 1.15; 1 1" keyTimes="0; 0.333; 0.667; 1" keySplines="1 0 0 1; 1 0 0 1; 1 0 0 1" fill="freeze" /><g transform="translate(-169.75,-302.69)"><g opacity="0" id="r1 Outlines"><animate repeatCount="indefinite" attributeName="opacity" dur="3s" begin="0s" calcMode="spline" values="0; 1; 1; 0" keyTimes="0; 0.333; 0.667; 1" keySplines="0.85 0 0.15 1; 0.85 0 0.15 1; 0.85 0 0.15 1" fill="freeze" /><g transform="translate(41.385,301.65)"><animateTransform repeatCount="indefinite" type="translate" attributeName="transform" dur="3s" begin="0s" calcMode="spline" values="41.385 301.65; -127.615 301.65; -127.615 301.65; 42.385 301.65" keyTimes="0; 0.333; 0.667; 1" keySplines="0.85 0 0.15 1; 0 0 1 1; 0.85 0 0.15 1" fill="freeze" /><g transform="scale(0,0)"><animateTransform repeatCount="indefinite" type="scale" attributeName="transform" dur="3s" begin="0s" calcMode="spline" values="0 0; 1 1; 1 1; 0 0" keyTimes="0; 0.333; 0.667; 1" keySplines="0.85 0 0.15 1; 0.85 0 0.15 1; 0.85 0 0.15 1" fill="freeze" /><g transform="translate(-29.657,-113.255)"><g id="Group 1" transform="matrix(1,0,0,1,29.657,113.255)"><path fill="#ffb200" fill-opacity="1" d="M12.165,113.005C7.632,113.005,3.146,111,0.126,107.161C-18.367,83.641,-29.408,43.34,-29.408,-0.646C-29.408,-41.761,-19.497,-80.535,-2.896,-104.368C1.935,-111.301,11.473,-113.005,18.407,-108.176C25.342,-103.346,27.048,-93.809,22.217,-86.874C9.252,-68.262,1.197,-35.221,1.197,-0.646C1.197,36.151,10.006,70.211,24.184,88.244C29.408,94.887,28.257,104.508,21.613,109.731C18.81,111.936,15.475,113.005,12.165,113.005Z" /></g></g></g></g></g></g></g></g></g></g><g id="phone Outlines"><g transform="translate(501.424,500)"><g transform="rotate(0)"><animateTransform repeatCount="indefinite" type="rotate" attributeName="transform" dur="0.4s" begin="1.3s" calcMode="spline" values="0; 5; 0; -5; 0; 5; 0" keyTimes="0; 0.167; 0.333; 0.5; 0.667; 0.833; 1" keySplines="0.86 0 0.14 1; 0.86 0 0.14 1; 0.86 0 0.14 1; 0.86 0 0.14 1; 0.86 0 0.14 1; 0.86 0 0.14 1" fill="freeze" /><g transform="scale(1,1)"><animateTransform repeatCount="indefinite" type="scale" attributeName="transform" dur="3s" begin="0s" calcMode="spline" values="1 1; 1.15 1.15; 1.15 1.15; 1 1" keyTimes="0; 0.333; 0.667; 1" keySplines="1 0 0 1; 1 0 0 1; 1 0 0 1" fill="freeze" /><g transform="translate(-169.75,-302.69)"><g opacity="0" id="l Outlines"><animate repeatCount="indefinite" attributeName="opacity" dur="3s" begin="0s" calcMode="spline" values="0; 1; 1; 0" keyTimes="0; 0.333; 0.667; 1" keySplines="0.82 0 0.18 1; 0.82 0 0.16 1; 0.84 0 0.16 1" fill="freeze" /><g transform="translate(303.049,301.633)"><animateTransform repeatCount="indefinite" type="translate" attributeName="transform" dur="3s" begin="0s" calcMode="spline" values="303.049 301.633; 398.049 301.633; 398.049 301.633; 313.049 301.633" keyTimes="0; 0.333; 0.667; 1" keySplines="0.82 0 0.18 1; 0 0 1 1; 0.84 0 0.16 1" fill="freeze" /><g transform="scale(0,0)"><animateTransform repeatCount="indefinite" type="scale" attributeName="transform" dur="3s" begin="0s" calcMode="spline" values="0 0; 1 1; 1 1; 0 0" keyTimes="0; 0.333; 0.667; 1" keySplines="0.82 0 0.18 1; 0.82 0 0.16 1; 0.84 0 0.16 1" fill="freeze" /><g transform="translate(-22.35,-67.752)"><g id="Group 1" transform="matrix(1,0,0,1,22.35,67.751)"><path fill="#ffb200" fill-opacity="1" d="M-1.808,67.502C-3.618,67.502,-5.456,67.179,-7.248,66.497C-15.146,63.492,-19.113,54.652,-16.107,46.753C-11.063,33.497,-8.505,19.285,-8.505,4.516C-8.505,-12.4,-12.004,-29.103,-18.626,-43.789C-22.1,-51.493,-18.67,-60.555,-10.965,-64.028C-3.262,-67.501,5.8,-64.074,9.274,-56.369C17.665,-37.759,22.1,-16.705,22.1,4.516C22.1,23.019,18.869,40.892,12.497,57.637C10.173,63.745,4.359,67.502,-1.808,67.502Z" /></g></g></g></g></g></g></g></g></g></g><g id="phone Outlines"><g transform="translate(501.424,500)"><g transform="rotate(0)"><animateTransform repeatCount="indefinite" type="rotate" attributeName="transform" dur="0.4s" begin="1.3s" calcMode="spline" values="0; 5; 0; -5; 0; 5; 0" keyTimes="0; 0.167; 0.333; 0.5; 0.667; 0.833; 1" keySplines="0.86 0 0.14 1; 0.86 0 0.14 1; 0.86 0 0.14 1; 0.86 0 0.14 1; 0.86 0 0.14 1; 0.86 0 0.14 1" fill="freeze" /><g transform="scale(1,1)"><animateTransform repeatCount="indefinite" type="scale" attributeName="transform" dur="3s" begin="0s" calcMode="spline" values="1 1; 1.15 1.15; 1.15 1.15; 1 1" keyTimes="0; 0.333; 0.667; 1" keySplines="1 0 0 1; 1 0 0 1; 1 0 0 1" fill="freeze" /><g transform="translate(-169.75,-302.69)"><g opacity="0" id="l 1 Outlines"><animate repeatCount="indefinite" attributeName="opacity" dur="3s" begin="0s" calcMode="spline" values="0; 1; 1; 0" keyTimes="0; 0.333; 0.667; 1" keySplines="0.81 0 0.19 1; 0.81 0 0.17 1; 0.83 0 0.17 1" fill="freeze" /><g transform="translate(297.267,301.649)"><animateTransform repeatCount="indefinite" type="translate" attributeName="transform" dur="3s" begin="0s" calcMode="spline" values="297.267 301.649; 464.267 301.649; 464.267 301.649; 299.267 301.649" keyTimes="0; 0.333; 0.667; 1" keySplines="0.81 0 0.19 1; 0 0 1 1; 0.83 0 0.17 1" fill="freeze" /><g transform="scale(0,0)"><animateTransform repeatCount="indefinite" type="scale" attributeName="transform" dur="3s" begin="0s" calcMode="spline" values="0 0; 1 1; 1 1; 0 0" keyTimes="0; 0.333; 0.667; 1" keySplines="0.81 0 0.19 1; 0.81 0 0.17 1; 0.83 0 0.17 1" fill="freeze" /><g transform="translate(-29.657,-113.256)"><g id="Group 1" transform="matrix(1,0,0,1,29.657,113.256)"><path fill="#ffb200" fill-opacity="1" d="M-12.165,113.006C-15.476,113.006,-18.809,111.937,-21.613,109.732C-28.257,104.509,-29.408,94.888,-24.184,88.245C-10.005,70.213,-1.198,36.153,-1.198,-0.645C-1.198,-35.221,-9.252,-68.261,-22.216,-86.873C-27.047,-93.808,-25.341,-103.345,-18.407,-108.175C-11.469,-113.006,-1.934,-111.301,2.896,-104.367C19.497,-80.535,29.408,-41.761,29.408,-0.645C29.408,43.342,18.367,83.644,-0.126,107.162C-3.144,111.001,-7.633,113.006,-12.165,113.006Z" /></g></g></g></g></g></g></g></g></g></g><g id="phone Outlines"><g transform="translate(501.424,500)"><g transform="rotate(0)"><animateTransform repeatCount="indefinite" type="rotate" attributeName="transform" dur="0.4s" begin="1.3s" calcMode="spline" values="0; 5; 0; -5; 0; 5; 0" keyTimes="0; 0.167; 0.333; 0.5; 0.667; 0.833; 1" keySplines="0.86 0 0.14 1; 0.86 0 0.14 1; 0.86 0 0.14 1; 0.86 0 0.14 1; 0.86 0 0.14 1; 0.86 0 0.14 1" fill="freeze" /><g transform="scale(1,1)"><animateTransform repeatCount="indefinite" type="scale" attributeName="transform" dur="3s" begin="0s" calcMode="spline" values="1 1; 1.15 1.15; 1.15 1.15; 1 1" keyTimes="0; 0.333; 0.667; 1" keySplines="1 0 0 1; 1 0 0 1; 1 0 0 1" fill="freeze" /><g transform="translate(-169.75,-302.69)"><g id="Group 1" transform="matrix(1,0,0,1,169.75,302.69)"><path fill="#506c82" fill-opacity="1" d="M129.369,-302.44L-129.368,-302.44C-151.532,-302.44,-169.499,-284.472,-169.499,-262.309L-169.499,262.311C-169.499,284.474,-151.532,302.441,-129.368,302.441L129.369,302.441C151.533,302.441,169.5,284.474,169.5,262.311L169.5,-262.309C169.5,-284.472,151.533,-302.44,129.369,-302.44Z" /></g></g></g></g></g></g><g id="phone Outlines"><g transform="translate(501.424,500)"><g transform="rotate(0)"><animateTransform repeatCount="indefinite" type="rotate" attributeName="transform" dur="0.4s" begin="1.3s" calcMode="spline" values="0; 5; 0; -5; 0; 5; 0" keyTimes="0; 0.167; 0.333; 0.5; 0.667; 0.833; 1" keySplines="0.86 0 0.14 1; 0.86 0 0.14 1; 0.86 0 0.14 1; 0.86 0 0.14 1; 0.86 0 0.14 1; 0.86 0 0.14 1" fill="freeze" /><g transform="scale(1,1)"><animateTransform repeatCount="indefinite" type="scale" attributeName="transform" dur="3s" begin="0s" calcMode="spline" values="1 1; 1.15 1.15; 1.15 1.15; 1 1" keyTimes="0; 0.333; 0.667; 1" keySplines="1 0 0 1; 1 0 0 1; 1 0 0 1" fill="freeze" /><g transform="translate(-169.75,-302.69)"><g transform="matrix(1,0,0,1,33.195,46.974)" id="screan Outlines"><g id="Group 1" transform="matrix(1,0,0,1,136.554,238.494)"><path fill="#fffffa" fill-opacity="1" d="M-136.304,237.548L-136.304,-237.546C-136.304,-237.931,-135.992,-238.244,-135.607,-238.244L135.608,-238.244C135.993,-238.244,136.304,-237.931,136.304,-237.546L136.304,237.548C136.304,237.933,135.993,238.244,135.608,238.244L-135.607,238.244C-135.992,238.244,-136.304,237.933,-136.304,237.548Z" /></g></g></g></g></g></g></g><g id="phone Outlines"><g transform="translate(501.424,500)"><g transform="rotate(0)"><animateTransform repeatCount="indefinite" type="rotate" attributeName="transform" dur="0.4s" begin="1.3s" calcMode="spline" values="0; 5; 0; -5; 0; 5; 0" keyTimes="0; 0.167; 0.333; 0.5; 0.667; 0.833; 1" keySplines="0.86 0 0.14 1; 0.86 0 0.14 1; 0.86 0 0.14 1; 0.86 0 0.14 1; 0.86 0 0.14 1; 0.86 0 0.14 1" fill="freeze" /><g transform="scale(1,1)"><animateTransform repeatCount="indefinite" type="scale" attributeName="transform" dur="3s" begin="0s" calcMode="spline" values="1 1; 1.15 1.15; 1.15 1.15; 1 1" keyTimes="0; 0.333; 0.667; 1" keySplines="1 0 0 1; 1 0 0 1; 1 0 0 1" fill="freeze" /><g transform="translate(-169.75,-302.69)"><g transform="matrix(1,0,0,1,141.092,537.223)" id="butten Outlines"><g id="Group 1" transform="matrix(1,0,0,1,28.658,28.658)"><path fill="#fffffa" fill-opacity="1" d="M28.408,0C28.408,-15.689,15.689,-28.408,0,-28.408C-15.689,-28.408,-28.408,-15.689,-28.408,0C-28.408,15.689,-15.689,28.408,0,28.408C15.689,28.408,28.408,15.689,28.408,0Z" /></g></g></g></g></g></g></g></svg>