<?xml version="1.0" encoding="utf-8"?><svg fill="none" viewBox="0 0 1847 1042" xmlns="http://www.w3.org/2000/svg"><defs /><g transform="matrix(1,0,0,1,644.446,619.537)" id="wallet Outlines"><g id="Group 15" transform="matrix(1,0,0,1,269.924,218.18)"><path fill="#fbbb48" fill-opacity="1" d="M203.529,-151.784L203.529,-159.848C203.529,-178.256,188.606,-193.18,170.198,-193.18L-211.593,-193.18C-230.001,-193.18,-244.924,-178.256,-244.924,-159.848L-244.924,159.848C-244.924,178.256,-230.001,193.179,-211.593,193.179L211.594,193.179C230.002,193.179,244.925,178.256,244.925,159.848L244.925,-118.452C244.925,-136.86,230.002,-151.784,211.594,-151.784L203.529,-151.784Z" /></g><g id="Group 14" transform="matrix(1,0,0,1,269.924,238.878)"><path fill="#eaa332" fill-opacity="1" d="M211.593,-172.482L202.205,-172.482C213.022,-169.338,227.387,-149.219,227.387,-139.15L227.387,135.103C227.387,146.043,218.486,154.945,207.546,154.945L-211.594,154.945C-221.391,154.945,-240.942,142.085,-244.925,131.54L-244.925,139.15C-244.925,157.558,-230.002,172.481,-211.594,172.481L211.593,172.481C230.001,172.481,244.924,157.558,244.924,139.15L244.924,-139.15C244.924,-157.558,230.001,-172.482,211.593,-172.482Z" /></g><g id="Group 13" transform="matrix(1,0,0,1,264.637,56.046)"><path stroke-linejoin="round" stroke-linecap="round" stroke-width="10" stroke-opacity="1" stroke="#212d3a" fill="#212d3a" fill-opacity="1" d="M-198.713,-9.871L196.183,-10.35C203.162,-10.35,208.818,-4.694,208.818,2.284L208.815,10.35L-198.712,10.343C-204.294,10.343,-208.819,5.818,-208.819,0.236C-208.819,-5.345,-204.295,-9.87,-198.713,-9.871Z" /></g><g id="Group 12" transform="matrix(1,0,0,1,448.012,250.144)"><path fill="#eaa332" fill-opacity="1" d="M-15.9,-50.937C-44.031,-50.937,-66.837,-28.131,-66.837,0L-66.837,0.001C-66.837,28.131,-44.031,50.937,-15.9,50.937L66.837,50.937L66.837,-50.937L-15.9,-50.937Z" /></g><g id="Group 11" transform="matrix(1,0,0,1,269.924,218.18)"><path stroke-linejoin="round" stroke-linecap="round" stroke-width="10" stroke-opacity="1" stroke="#212d3a" d="M203.529,-151.784L203.529,-159.848C203.529,-178.256,188.606,-193.18,170.198,-193.18L-211.593,-193.18C-230.001,-193.18,-244.924,-178.256,-244.924,-159.848L-244.924,159.848C-244.924,178.256,-230.001,193.179,-211.593,193.179L211.594,193.179C230.002,193.179,244.925,178.256,244.925,159.848L244.925,-118.452C244.925,-136.86,230.002,-151.784,211.594,-151.784L203.529,-151.784Z" /></g><g id="Group 10" transform="matrix(1,0,0,1,479.576,48.327)"><path fill="#ffffff" fill-opacity="1" d="M0.623,10.004L0.623,11.324L1.942,11.324C3.197,11.324,4.438,11.391,5.665,11.504C4.492,2.585,0.385,-5.424,-5.665,-11.504C-1.692,-5.284,0.623,2.092,0.623,10.004Z" /></g><g id="Group 9" transform="matrix(1,0,0,1,247.536,214.728)"><path fill="#ffffff" fill-opacity="1" d="M-207.014,182.982C-209.16,179.149,-210.395,174.741,-210.395,170.044L-210.395,-149.652C-210.395,-164.312,-198.469,-176.239,-183.809,-176.239L197.981,-176.239C204.835,-176.239,211.071,-173.608,215.791,-169.334C211.238,-177.466,202.549,-182.982,192.587,-182.982L-189.204,-182.982C-203.864,-182.982,-215.791,-171.056,-215.791,-156.396L-215.791,163.301C-215.791,171.106,-212.389,178.114,-207.014,182.982Z" /></g><g id="Group 8" transform="matrix(1,0,0,1,457.498,242.542)"><path fill="#939393" fill-opacity="1" d="M52.634,43.336L-32.987,43.336C-56.921,43.336,-76.323,23.934,-76.323,0C-76.323,-23.934,-56.921,-43.336,-32.987,-43.336L52.634,-43.336C65.717,-43.336,76.323,-32.729,76.323,-19.646L76.323,19.647C76.323,32.731,65.717,43.336,52.634,43.336Z" /></g><g id="Group 7" transform="matrix(1,0,0,1,451.006,236.925)"><path fill="#bababa" fill-opacity="1" d="M47.738,37.719L-29.416,37.719C-51.737,37.719,-69.831,25.02,-69.831,2.698C-69.831,-19.623,-51.737,-37.718,-29.416,-37.718L47.738,-37.718C59.94,-37.718,69.831,-27.826,69.831,-15.625L69.831,15.625C69.831,27.827,59.94,37.719,47.738,37.719Z" /></g><g id="Group 6" transform="matrix(1,0,0,1,457.498,242.542)"><path stroke-linejoin="miter" stroke-linecap="butt" stroke-width="10" stroke-opacity="1" stroke="#212d3a" d="M52.634,43.336L-32.987,43.336C-56.921,43.336,-76.323,23.934,-76.323,0C-76.323,-23.934,-56.921,-43.336,-32.987,-43.336L52.634,-43.336C65.717,-43.336,76.323,-32.729,76.323,-19.646L76.323,19.647C76.323,32.731,65.717,43.336,52.634,43.336Z" /></g><g id="Group 5" transform="matrix(1,0,0,1,423.864,241.896)"><path fill="#ffffff" fill-opacity="1" d="M0,20.225C-11.152,20.225,-20.225,11.153,-20.225,0C-20.225,-11.152,-11.152,-20.225,0,-20.225C11.152,-20.225,20.225,-11.152,20.225,0C20.225,11.153,11.152,20.225,0,20.225Z" /></g><g id="Group 4" transform="matrix(1,0,0,1,423.865,241.896)"><path fill="#212d3a" fill-opacity="1" d="M-0.001,-25.226C-13.933,-25.226,-25.225,-13.931,-25.225,0.001C-25.225,13.932,-13.933,25.225,-0.001,25.225C13.931,25.225,25.225,13.932,25.225,0.001C25.225,-13.931,13.931,-25.226,-0.001,-25.226ZM-0.001,-15.226C8.395,-15.226,15.225,-8.395,15.225,0.001C15.225,8.396,8.395,15.225,-0.001,15.225C-8.396,15.225,-15.225,8.396,-15.225,0.001C-15.225,-8.395,-8.396,-15.226,-0.001,-15.226Z" /></g><g id="Group 3" transform="matrix(1,0,0,1,262.288,172.625)"><path fill="#fbbb48" fill-opacity="1" d="M161.535,-36.084L75.878,106.229L-186.491,106.229L-186.491,-106.229L186.491,-106.229L161.535,-36.084Z" /></g><g id="Group 2" transform="matrix(1,0,0,1,264.637,61.339)"><path stroke-linejoin="round" stroke-linecap="round" stroke-width="10" stroke-opacity="1" stroke="#212d3a" d="M208.819,-3.01L208.815,5.057L-198.712,5.051C-204.294,5.051,-208.818,0.524,-208.818,-5.057" /></g><g id="Group 1" transform="matrix(1,0,0,1,278.895,83.607)"><path fill="#ffffff" fill-opacity="1" d="M229.209,16.119C229.209,1.459,217.282,-10.467,202.623,-10.467L-210.3,-10.467C-220.417,-10.467,-227.806,-19.136,-228.848,-21.516C-229.21,-20.689,-224.014,-5.07,-208.951,-5.07L202.623,-5.07C217.282,-5.07,229.209,6.856,229.209,21.516L229.209,16.119Z" /></g></g><g id="dollar-right"><g transform="translate(2107,227.968)"><animateTransform repeatCount="indefinite" type="translate" attributeName="transform" dur="0.533s" begin="0.433s" calcMode="spline" values="2107 227.968; 914.37 937.235" keyTimes="0; 1" keySplines="0 0 1 1" fill="freeze" /><g transform="rotate(-17.6)"><animateTransform repeatCount="indefinite" type="rotate" attributeName="transform" dur="0.533s" begin="0.433s" calcMode="spline" values="-17.6; -90" keyTimes="0; 1" keySplines="0.333 0 0.667 1" fill="freeze" /><g transform="scale(1,1) translate(-224.536,-101.218)"><g id="Group 6" transform="matrix(1,0,0,1,224.536,101.218)"><path fill="#77c771" fill-opacity="1" d="M-195.573,-91.719C-206.303,-91.719,-215.037,-82.99,-215.037,-72.255L-215.037,72.255C-215.037,82.989,-206.303,91.719,-195.573,91.719L195.573,91.719C206.303,91.719,215.037,82.989,215.037,72.255L215.037,-72.255C215.037,-82.99,206.303,-91.719,195.573,-91.719L-195.573,-91.719Z" /></g><g id="Group 5" transform="matrix(1,0,0,1,95.422,101.217)"><path fill="#ffffff" fill-opacity="1" d="M35.454,0C35.454,19.581,19.581,35.454,0,35.454C-19.581,35.454,-35.454,19.581,-35.454,0C-35.454,-19.581,-19.581,-35.454,0,-35.454C19.581,-35.454,35.454,-19.581,35.454,0Z" /></g><g id="Group 4" transform="matrix(1,0,0,1,224.536,101.603)"><path fill="#ffffff" fill-opacity="1" d="M43.71,-0.001C43.71,35.968,24.141,65.127,0,65.127C-24.14,65.127,-43.71,35.968,-43.71,-0.001C-43.71,-35.97,-24.14,-65.127,0,-65.127C24.141,-65.127,43.71,-35.97,43.71,-0.001Z" /></g><g id="Group 3" transform="matrix(1,0,0,1,353.651,101.217)"><path fill="#ffffff" fill-opacity="1" d="M35.454,0C35.454,19.581,19.581,35.454,0,35.454C-19.581,35.454,-35.454,19.581,-35.454,0C-35.454,-19.581,-19.581,-35.454,0,-35.454C19.581,-35.454,35.454,-19.581,35.454,0Z" /></g><g id="Group 2" transform="matrix(1,0,0,1,224.536,101.218)"><path fill="#212d3a" fill-opacity="1" d="M175.425,91.719L-175.425,91.719C-177.607,70.776,-194.094,54.289,-215.037,52.105L-215.037,-52.107C-194.094,-54.29,-177.608,-70.776,-175.425,-91.719L175.425,-91.719C177.609,-70.776,194.094,-54.29,215.037,-52.107L215.037,52.105C194.094,54.289,177.608,70.776,175.425,91.719ZM195.573,-100.968L-195.573,-100.968C-211.406,-100.968,-224.286,-88.088,-224.286,-72.255L-224.286,72.255C-224.286,88.088,-211.406,100.968,-195.573,100.968L195.573,100.968C211.406,100.968,224.286,88.088,224.286,72.255L224.286,-72.255C224.286,-88.088,211.406,-100.968,195.573,-100.968Z" /></g><g id="Group 1" transform="matrix(1,0,0,1,225.593,98.57)"><path fill="#ffffff" fill-opacity="1" d="M-200.676,-83.675L190.47,-83.675C201.2,-83.675,209.934,-74.946,209.934,-64.211L209.934,80.299C209.934,83.456,209.162,86.431,207.822,89.071C211.603,85.518,213.981,80.489,213.981,74.903L213.981,-69.606C213.981,-80.341,205.247,-89.071,194.516,-89.071L-196.629,-89.071C-204.203,-89.071,-210.766,-84.712,-213.981,-78.378C-210.497,-81.652,-205.822,-83.675,-200.676,-83.675Z" /></g></g></g></g></g><g transform="matrix(1,0,0,1,0,-427)" id="Mask" /><g id="dollar-left"><g transform="translate(-261.867,227.968)"><animateTransform repeatCount="indefinite" type="translate" attributeName="transform" dur="0.867s" begin="0s" calcMode="spline" values="-261.867 227.968; 914.37 937.235; -289.988 1012.732; -261.867 -40.032" keyTimes="0; 0.615; 0.635; 1" keySplines="0 0 1 1; 0 0 1 1; 0 0 1 1" fill="freeze" /><g transform="rotate(17.6)"><animateTransform repeatCount="indefinite" type="rotate" attributeName="transform" dur="0.867s" begin="0s" calcMode="spline" values="17.6; 90; 17.6" keyTimes="0; 0.615; 1" keySplines="0.333 0 0.667 1; 0.333 0 0.667 1" fill="freeze" /><g transform="scale(1,1) translate(-224.536,-101.218)"><g id="Group 6" transform="matrix(1,0,0,1,224.536,101.218)"><path fill="#77c771" fill-opacity="1" d="M-195.573,-91.719C-206.303,-91.719,-215.037,-82.99,-215.037,-72.255L-215.037,72.255C-215.037,82.989,-206.303,91.719,-195.573,91.719L195.573,91.719C206.303,91.719,215.037,82.989,215.037,72.255L215.037,-72.255C215.037,-82.99,206.303,-91.719,195.573,-91.719L-195.573,-91.719Z" /></g><g id="Group 5" transform="matrix(1,0,0,1,95.422,101.217)"><path fill="#ffffff" fill-opacity="1" d="M35.454,0C35.454,19.581,19.581,35.454,0,35.454C-19.581,35.454,-35.454,19.581,-35.454,0C-35.454,-19.581,-19.581,-35.454,0,-35.454C19.581,-35.454,35.454,-19.581,35.454,0Z" /></g><g id="Group 4" transform="matrix(1,0,0,1,224.536,101.603)"><path fill="#ffffff" fill-opacity="1" d="M43.71,-0.001C43.71,35.968,24.141,65.127,0,65.127C-24.14,65.127,-43.71,35.968,-43.71,-0.001C-43.71,-35.97,-24.14,-65.127,0,-65.127C24.141,-65.127,43.71,-35.97,43.71,-0.001Z" /></g><g id="Group 3" transform="matrix(1,0,0,1,353.651,101.217)"><path fill="#ffffff" fill-opacity="1" d="M35.454,0C35.454,19.581,19.581,35.454,0,35.454C-19.581,35.454,-35.454,19.581,-35.454,0C-35.454,-19.581,-19.581,-35.454,0,-35.454C19.581,-35.454,35.454,-19.581,35.454,0Z" /></g><g id="Group 2" transform="matrix(1,0,0,1,224.536,101.218)"><path fill="#212d3a" fill-opacity="1" d="M175.425,91.719L-175.425,91.719C-177.607,70.776,-194.094,54.289,-215.037,52.105L-215.037,-52.107C-194.094,-54.29,-177.608,-70.776,-175.425,-91.719L175.425,-91.719C177.609,-70.776,194.094,-54.29,215.037,-52.107L215.037,52.105C194.094,54.289,177.608,70.776,175.425,91.719ZM195.573,-100.968L-195.573,-100.968C-211.406,-100.968,-224.286,-88.088,-224.286,-72.255L-224.286,72.255C-224.286,88.088,-211.406,100.968,-195.573,100.968L195.573,100.968C211.406,100.968,224.286,88.088,224.286,72.255L224.286,-72.255C224.286,-88.088,211.406,-100.968,195.573,-100.968Z" /></g><g id="Group 1" transform="matrix(1,0,0,1,225.593,98.57)"><path fill="#ffffff" fill-opacity="1" d="M-200.676,-83.675L190.47,-83.675C201.2,-83.675,209.934,-74.946,209.934,-64.211L209.934,80.299C209.934,83.456,209.162,86.431,207.822,89.071C211.603,85.518,213.981,80.489,213.981,74.903L213.981,-69.606C213.981,-80.341,205.247,-89.071,194.516,-89.071L-196.629,-89.071C-204.203,-89.071,-210.766,-84.712,-213.981,-78.378C-210.497,-81.652,-205.822,-83.675,-200.676,-83.675Z" /></g></g></g></g></g><g transform="matrix(1,0,0,1,0,-427)" id="Mask" /></svg>